<svg width="290" height="90" viewBox="0 0 290 90" fill="none" xmlns="http://www.w3.org/2000/svg">
<path fill-rule="evenodd" clip-rule="evenodd" d="M25 0C11.1929 0 0 11.1929 0 25V65C0 78.8071 11.1929 90 25 90H265C278.807 90 290 78.8071 290 65V25C290 11.1929 278.807 0 265 0H25ZM24.7168 7.57485C14.7757 7.57485 6.7168 15.6337 6.7168 25.5748V65.1749C6.7168 75.116 14.7757 83.1749 24.7168 83.1749H264.671C274.612 83.1749 282.671 75.116 282.671 65.1749V25.5749C282.671 15.6337 274.612 7.57485 264.671 7.57485H24.7168Z" fill="url(#paint0_linear_1064_670)"/>
<defs>
<linearGradient id="paint0_linear_1064_670" x1="290" y1="-13.2353" x2="268.08" y2="130.799" gradientUnits="userSpaceOnUse">
<stop offset="0.15625" stop-color="#CA8341"/>
<stop offset="0.369792" stop-color="#FBD77D"/>
<stop offset="0.484375" stop-color="#FFECBE"/>
<stop offset="0.635417" stop-color="#FBD77D"/>
<stop offset="0.84375" stop-color="#CA8341"/>
</linearGradient>
</defs>
</svg>
