<svg width="401" height="124" viewBox="0 0 401 124" fill="none" xmlns="http://www.w3.org/2000/svg">
<g filter="url(#filter0_d_103_607)">
<g clip-path="url(#clip0_103_607)">
<path fill-rule="evenodd" clip-rule="evenodd" d="M29 0C15.1929 0 4 11.1929 4 25V91C4 104.807 15.1929 116 29 116H372C385.807 116 397 104.807 397 91V25C397 11.1929 385.807 0 372 0H29ZM33 12.0835C23.0589 12.0835 15 20.1424 15 30.0835V85.9168C15 95.858 23.0589 103.917 33 103.917H367C376.941 103.917 385 95.8579 385 85.9168V30.0835C385 20.1424 376.941 12.0835 367 12.0835H33Z" fill="url(#paint0_linear_103_607)"/>
</g>
</g>
<defs>
<filter id="filter0_d_103_607" x="0" y="0" width="401" height="124" filterUnits="userSpaceOnUse" color-interpolation-filters="sRGB">
<feFlood flood-opacity="0" result="BackgroundImageFix"/>
<feColorMatrix in="SourceAlpha" type="matrix" values="0 0 0 0 0 0 0 0 0 0 0 0 0 0 0 0 0 0 127 0" result="hardAlpha"/>
<feOffset dy="4"/>
<feGaussianBlur stdDeviation="2"/>
<feComposite in2="hardAlpha" operator="out"/>
<feColorMatrix type="matrix" values="0 0 0 0 0 0 0 0 0 0 0 0 0 0 0 0 0 0 0.25 0"/>
<feBlend mode="normal" in2="BackgroundImageFix" result="effect1_dropShadow_103_607"/>
<feBlend mode="normal" in="SourceGraphic" in2="effect1_dropShadow_103_607" result="shape"/>
</filter>
<linearGradient id="paint0_linear_103_607" x1="397" y1="-17.0588" x2="370.071" y2="168.987" gradientUnits="userSpaceOnUse">
<stop offset="0.15625" stop-color="#CA8341"/>
<stop offset="0.369792" stop-color="#FBD77D"/>
<stop offset="0.484375" stop-color="#FFECBE"/>
<stop offset="0.635417" stop-color="#FBD77D"/>
<stop offset="0.84375" stop-color="#CA8341"/>
</linearGradient>
<clipPath id="clip0_103_607">
<rect x="4" width="393" height="116" rx="25" fill="white"/>
</clipPath>
</defs>
</svg>
