<svg width="49" height="49" viewBox="0 0 49 49" fill="none" xmlns="http://www.w3.org/2000/svg">
<circle cx="24.5" cy="24.5" r="24.5" fill="url(#paint0_linear_204_595)"/>
<path d="M29.8419 11.2002H17.8589C14.0158 11.2002 10.9004 14.3419 10.9004 18.2173V30.6131C10.9004 34.4886 14.0158 37.6302 17.8589 37.6302H29.8419C33.685 37.6302 36.8004 34.4886 36.8004 30.6131V18.2173C36.8004 14.3419 33.685 11.2002 29.8419 11.2002Z" stroke="#1D1D1B" stroke-width="2.88" stroke-miterlimit="10"/>
<path d="M23.85 30.9115C27.3729 30.9115 30.2288 28.0315 30.2288 24.4789C30.2288 20.9263 27.3729 18.0464 23.85 18.0464C20.3271 18.0464 17.4712 20.9263 17.4712 24.4789C17.4712 28.0315 20.3271 30.9115 23.85 30.9115Z" stroke="#1D1D1B" stroke-width="2.88" stroke-miterlimit="10"/>
<path d="M31.3493 18.5532C32.2778 18.5532 33.0305 17.7941 33.0305 16.8578C33.0305 15.9214 32.2778 15.1623 31.3493 15.1623C30.4207 15.1623 29.668 15.9214 29.668 16.8578C29.668 17.7941 30.4207 18.5532 31.3493 18.5532Z" fill="#1D1D1B"/>
<defs>
<linearGradient id="paint0_linear_204_595" x1="49" y1="-7.20587" x2="17.2817" y2="57.4748" gradientUnits="userSpaceOnUse">
<stop offset="0.15625" stop-color="#CA8341"/>
<stop offset="0.369792" stop-color="#FBD77D"/>
<stop offset="0.484375" stop-color="#FFECBE"/>
<stop offset="0.635417" stop-color="#FBD77D"/>
<stop offset="0.84375" stop-color="#CA8341"/>
</linearGradient>
</defs>
</svg>
