<svg width="50" height="50" viewBox="0 0 50 50" fill="none" xmlns="http://www.w3.org/2000/svg">
<g clip-path="url(#clip0_1064_16)">
<path fill-rule="evenodd" clip-rule="evenodd" d="M25.2998 49.3999C38.9413 49.3999 50 38.3412 50 24.6997C50 11.0582 38.9413 -0.000488281 25.2998 -0.000488281C11.6583 -0.000488281 0.599609 11.0582 0.599609 24.6997C0.599609 38.3412 11.6583 49.3999 25.2998 49.3999ZM36.527 16.5787C36.5616 16.2901 36.5962 16.0012 36.5908 15.7092H36.5907C36.5881 15.5008 36.5777 15.2933 36.5496 15.0862C36.4859 14.6193 36.2394 14.3144 35.7869 14.1864C35.6124 14.137 35.4349 14.1113 35.253 14.114C34.9466 14.1184 34.6496 14.1817 34.3557 14.2613C33.5684 14.4747 32.8076 14.7676 32.0489 15.0648C29.7817 15.9527 27.5369 16.8967 25.2973 17.8525C21.9021 19.3014 18.5226 20.7874 15.1432 22.2734C14.6306 22.4988 14.118 22.7241 13.6054 22.9494C13.3355 23.068 13.0649 23.185 12.7942 23.3019C12.4164 23.4651 12.0385 23.6284 11.6627 23.7962C11.3318 23.9441 11.0243 24.1319 10.7634 24.3931C10.5721 24.5846 10.4468 24.7897 10.4874 25.0781C10.5043 25.1982 10.5548 25.2915 10.6229 25.3806C10.7284 25.5187 10.8653 25.6206 11.0141 25.7063C11.1486 25.7836 11.2885 25.8498 11.4322 25.9081C11.828 26.0686 12.2345 26.1968 12.641 26.3249C12.7801 26.3688 12.9193 26.4127 13.058 26.4579C14.0338 26.7757 15.0149 27.0743 16.0241 27.2663C16.3331 27.325 16.6446 27.3735 16.9597 27.3638C17.3118 27.353 17.6538 27.2792 17.9868 27.1611C18.5262 26.9696 19.0128 26.6797 19.4842 26.3583C19.6072 26.2744 19.7303 26.1905 19.8533 26.1066C22.5577 24.2619 25.2621 22.4173 27.9901 20.6082C28.4681 20.291 28.9471 19.9749 29.4398 19.6809C29.5747 19.6004 29.7177 19.5746 29.8698 19.5841C30.0263 19.594 30.1296 19.6777 30.1724 19.8291C30.2143 19.9774 30.2015 20.1144 30.1013 20.2413C29.8856 20.5147 29.6483 20.7681 29.4058 21.0165C28.0804 22.3744 26.6995 23.6736 25.3187 24.9727L25.2854 25.004C24.395 25.8416 23.5064 26.6808 22.6453 27.5492C22.5249 27.6705 22.4091 27.7968 22.2963 27.9252C22.1556 28.0853 22.0304 28.2572 21.935 28.4495C21.7566 28.8091 21.7679 29.1613 21.9749 29.5061C22.0311 29.5999 22.0961 29.6873 22.1673 29.7699C22.3998 30.0391 22.6756 30.2573 22.9686 30.453C23.8397 31.0352 24.7035 31.6283 25.5673 32.2215C25.9992 32.5181 26.4311 32.8146 26.8639 33.1098C27.1416 33.2993 27.4206 33.4869 27.6995 33.6746C28.377 34.1305 29.0545 34.5864 29.7151 35.0675C29.9702 35.2533 30.2364 35.4227 30.5147 35.5716C30.9471 35.8028 31.3983 35.9594 31.8941 35.988C32.4313 36.019 32.8472 35.8198 33.1588 35.3841C33.2102 35.3125 33.2589 35.2386 33.3032 35.1624C33.5275 34.7768 33.6634 34.3567 33.7659 33.9248C33.8615 33.5224 33.9323 33.115 34.0031 32.7077C34.0223 32.5971 34.0415 32.4865 34.0612 32.376C34.245 31.3463 34.4254 30.3159 34.6024 29.2849C34.7768 28.2693 34.9483 27.2531 35.1152 26.2364C35.2779 25.2452 35.4359 24.2532 35.5912 23.2608C35.724 22.4124 35.8533 21.5635 35.9785 20.7139C36.081 20.0187 36.1784 19.3229 36.2716 18.6264C36.3552 18.0022 36.435 17.3774 36.5066 16.7517C36.5132 16.6941 36.5201 16.6364 36.527 16.5787Z" fill="url(#paint0_linear_1064_16)"/>
</g>
<defs>
<linearGradient id="paint0_linear_1064_16" x1="50" y1="-7.26524" x2="18.0225" y2="57.944" gradientUnits="userSpaceOnUse">
<stop offset="0.15625" stop-color="#CA8341"/>
<stop offset="0.369792" stop-color="#FBD77D"/>
<stop offset="0.484375" stop-color="#FFECBE"/>
<stop offset="0.635417" stop-color="#FBD77D"/>
<stop offset="0.84375" stop-color="#CA8341"/>
</linearGradient>
<clipPath id="clip0_1064_16">
<rect x="0.599609" y="49.3999" width="49" height="49" rx="24.5" transform="rotate(-90 0.599609 49.3999)" fill="white"/>
</clipPath>
</defs>
</svg>
